<?xml version="1.0" standalone="no"?>
<!DOCTYPE svg PUBLIC "-//W3C//DTD SVG 20010904//EN"
 "http://www.w3.org/TR/2001/REC-SVG-20010904/DTD/svg10.dtd">
<svg version="1.0" xmlns="http://www.w3.org/2000/svg"
 width="500.000000pt" height="500.000000pt" viewBox="0 0 500.000000 500.000000"
 preserveAspectRatio="xMidYMid meet">
<metadata>
Created by potrace 1.11, written by Peter Selinger 2001-2013
</metadata>
<g transform="translate(0.000000,500.000000) scale(0.100000,-0.100000)"
fill="#000000" stroke="none">
<path d="M1614 4226 c-222 -58 -379 -160 -505 -329 -93 -124 -150 -262 -175
-417 -5 -37 -6 -248 -1 -257 3 -4 8 -39 12 -77 3 -38 11 -94 16 -125 14 -87
11 -136 -9 -154 -9 -9 -53 -23 -97 -32 -254 -53 -457 -241 -524 -485 -26 -92
-28 -253 -6 -344 48 -193 175 -354 347 -442 37 -19 73 -34 81 -34 34 0 74 -56
100 -140 46 -146 146 -303 254 -396 202 -176 413 -252 663 -241 133 6 147 8
254 43 197 64 367 194 486 369 89 130 186 204 309 235 67 17 178 13 256 -10
39 -11 86 -23 105 -26 19 -3 38 -8 42 -10 15 -9 150 -19 254 -18 316 3 607
127 840 359 179 179 289 380 338 619 109 529 -132 1064 -600 1331 -179 103
-385 158 -584 159 -72 0 -193 -9 -235 -18 -71 -15 -160 -41 -225 -66 -125 -48
-170 -54 -245 -33 -82 24 -126 59 -195 155 -136 188 -292 306 -485 366 -101
31 -117 34 -255 38 -106 2 -139 -1 -216 -20z m1814 -1507 c2 -757 0 -878 -12
-889 -12 -9 -45 -2 -168 35 -84 26 -159 49 -168 51 -8 2 -79 23 -156 47 l-141
44 -169 -163 c-135 -131 -173 -163 -189 -158 -24 8 -19 0 -123 189 -117 210
-145 261 -164 300 -12 22 -28 37 -50 43 -18 6 -76 24 -128 40 -52 17 -180 56
-285 87 -104 32 -196 63 -204 70 -34 32 -6 57 196 176 109 64 272 160 363 214
226 133 228 135 247 135 21 0 41 -29 36 -51 -3 -11 -78 -62 -177 -120 -552
-328 -528 -313 -504 -320 13 -4 132 -40 265 -81 133 -41 244 -71 245 -67 2 4
103 110 224 236 122 125 245 253 274 283 43 45 217 226 507 527 34 34 32 43
-2 19 -19 -13 -329 -196 -399 -235 -17 -10 -55 -33 -84 -51 -46 -28 -57 -31
-78 -22 -14 7 -24 20 -24 31 0 19 35 61 51 61 4 0 53 28 110 63 57 35 111 67
119 70 8 4 132 77 275 162 180 108 268 154 285 153 l25 -3 3 -876z m-987 301
c25 -14 25 -56 0 -70 -41 -22 -84 28 -53 63 18 20 26 21 53 7z m-493 -944 c5
-22 -418 -446 -445 -446 -23 0 -43 18 -43 40 0 16 376 402 423 435 18 12 24
13 42 1 11 -7 21 -21 23 -30z m950 -268 c7 -7 12 -21 12 -31 0 -22 -215 -241
-246 -251 -23 -7 -54 15 -54 38 0 19 240 256 259 256 10 0 22 -5 29 -12z
m-727 -31 c3 -31 -10 -49 -116 -154 -85 -85 -119 -113 -139 -113 -36 0 -49 29
-28 62 20 31 187 197 221 221 26 17 60 9 62 -16z m-773 -209 c23 -23 12 -48
-48 -108 -49 -50 -64 -61 -87 -58 -22 2 -29 9 -31 30 -3 21 9 38 59 87 63 61
85 71 107 49z m436 -94 c21 -8 21 -63 1 -70 -29 -11 -65 5 -65 29 0 38 27 55
64 41z"/>
<path d="M3220 3220 c-69 -99 -258 -373 -421 -608 l-297 -427 147 -48 c80 -26
153 -49 161 -50 8 -2 47 -13 85 -25 39 -12 156 -48 260 -80 l190 -58 3 368 c1
202 1 535 0 739 l-3 370 -125 -181z"/>
<path d="M2994 3066 c-10 -13 -116 -125 -235 -248 -119 -122 -247 -254 -284
-293 -37 -38 -114 -118 -172 -177 l-104 -108 37 -67 c21 -38 55 -99 76 -136
21 -38 38 -72 38 -75 0 -4 9 -18 19 -31 19 -25 19 -24 20 108 2 126 3 135 29
174 15 23 31 47 37 53 5 7 39 55 75 108 36 53 119 174 185 269 126 180 286
413 299 435 12 20 1 14 -20 -12z"/>
<path d="M2479 2097 c-4 -6 -3 -257 1 -257 11 1 203 190 198 195 -3 3 -34 14
-69 25 -35 10 -79 23 -96 29 -18 5 -34 9 -34 8z"/>
</g>
</svg>
